<svg width="16" height="21" viewBox="0 0 16 21" fill="none" xmlns="http://www.w3.org/2000/svg">
<path d="M0.888855 2.61115C0.888855 1.9481 1.15225 1.31222 1.62109 0.843378C2.08993 0.374537 2.72581 0.111145 3.38886 0.111145H13.3889C14.0519 0.111145 14.6878 0.374537 15.1566 0.843378C15.6255 1.31222 15.8889 1.9481 15.8889 2.61115V16.3611C15.8889 16.6927 15.7572 17.0106 15.5227 17.245C15.2883 17.4794 14.9704 17.6111 14.6389 17.6111H2.13886C2.13886 17.9427 2.27055 18.2606 2.50497 18.495C2.73939 18.7295 3.05733 18.8611 3.38886 18.8611H15.2639C15.4296 18.8611 15.5886 18.927 15.7058 19.0442C15.823 19.1614 15.8889 19.3204 15.8889 19.4861C15.8889 19.6519 15.823 19.8109 15.7058 19.9281C15.5886 20.0453 15.4296 20.1111 15.2639 20.1111H3.38886C2.72581 20.1111 2.08993 19.8478 1.62109 19.3789C1.15225 18.9101 0.888855 18.2742 0.888855 17.6111V2.61115ZM8.38886 3.86115C8.2231 3.86115 8.06413 3.92699 7.94691 4.0442C7.8297 4.16141 7.76386 4.32038 7.76386 4.48615V9.48615C7.76386 9.65191 7.8297 9.81088 7.94691 9.92809C8.06413 10.0453 8.2231 10.1111 8.38886 10.1111C8.55462 10.1111 8.71359 10.0453 8.8308 9.92809C8.94801 9.81088 9.01386 9.65191 9.01386 9.48615V4.48615C9.01386 4.32038 8.94801 4.16141 8.8308 4.0442C8.71359 3.92699 8.55462 3.86115 8.38886 3.86115ZM9.32636 12.9236C9.32636 12.675 9.22758 12.4365 9.05177 12.2607C8.87595 12.0849 8.6375 11.9861 8.38886 11.9861C8.14022 11.9861 7.90176 12.0849 7.72594 12.2607C7.55013 12.4365 7.45136 12.675 7.45136 12.9236C7.45136 13.1723 7.55013 13.4107 7.72594 13.5866C7.90176 13.7624 8.14022 13.8611 8.38886 13.8611C8.6375 13.8611 8.87595 13.7624 9.05177 13.5866C9.22758 13.4107 9.32636 13.1723 9.32636 12.9236Z" fill="#1648CE"/>
</svg>
