<svg width="13" height="20" viewBox="0 0 13 20" fill="none" xmlns="http://www.w3.org/2000/svg">
<path d="M6.5 0C7.29565 0 8.05871 0.31607 8.62132 0.878679C9.18392 1.44129 9.49999 2.20435 9.49999 3C9.49999 3.79565 9.18392 4.55871 8.62132 5.12132C8.05871 5.68393 7.29565 6 6.5 6C5.70435 6 4.94129 5.68393 4.37868 5.12132C3.81607 4.55871 3.5 3.79565 3.5 3C3.5 2.20435 3.81607 1.44129 4.37868 0.878679C4.94129 0.31607 5.70435 0 6.5 0ZM6.5 7C8.13 7 9.61999 7.35 11 8.05C12.34 8.76 13 9.60999 13 10.61V16.38C13 17.5 12.14 18.44 10.39 19.19V17C10.39 16.05 9.52999 15.38 7.81 14.97C7.25 14.84 6.81 14.78 6.5 14.78C5.63 14.78 4.8 14.95 4.04 15.3C3.27 15.64 2.81 16.08 2.66 16.61C4 17.14 5.28 17.41 6.5 17.41L7.5 17.31V19.94L6.5 20C5.16127 20.0019 3.8367 19.7261 2.61 19.19C0.859999 18.44 0 17.5 0 16.38V10.61C0 9.60999 0.66 8.76 2 8.05C3.38 7.35 4.88 7 6.5 7ZM6.5 9C5.96956 9 5.46086 9.21071 5.08578 9.58578C4.71071 9.96085 4.5 10.4696 4.5 11C4.5 11.5304 4.71071 12.0391 5.08578 12.4142C5.46086 12.7893 5.96956 13 6.5 13C7.03043 13 7.53914 12.7893 7.91421 12.4142C8.28928 12.0391 8.5 11.5304 8.5 11C8.5 10.4696 8.28928 9.96085 7.91421 9.58578C7.53914 9.21071 7.03043 9 6.5 9Z" fill="#1648CE"/>
</svg>
